<mxfile host="app.diagrams.net" modified="2024-02-22T13:30:50.350Z" agent="Mozilla/5.0 (Windows NT 10.0; Win64; x64; rv:123.0) Gecko/20100101 Firefox/123.0" etag="WcVG2CPF9zqllv50-9-I" version="22.1.20" type="device">
  <diagram name="Seite-1" id="WX4k9dO9Yg37gr_DOy8r">
    <mxGraphModel dx="1793" dy="978" grid="1" gridSize="10" guides="1" tooltips="1" connect="1" arrows="1" fold="1" page="1" pageScale="1" pageWidth="1169" pageHeight="827" background="none" math="0" shadow="0">
      <root>
        <mxCell id="0" />
        <mxCell id="1" parent="0" />
        <mxCell id="SZGSnJeuWU-l9K6wn3Cd-1" value="" style="ellipse;whiteSpace=wrap;html=1;aspect=fixed;" vertex="1" parent="1">
          <mxGeometry x="240" y="40" width="80" height="80" as="geometry" />
        </mxCell>
        <mxCell id="SZGSnJeuWU-l9K6wn3Cd-2" value="A" style="rounded=0;whiteSpace=wrap;html=1;fontSize=44;fillColor=#97D077;" vertex="1" parent="1">
          <mxGeometry x="240" y="160" width="80" height="80" as="geometry" />
        </mxCell>
        <mxCell id="SZGSnJeuWU-l9K6wn3Cd-3" value="" style="ellipse;whiteSpace=wrap;html=1;aspect=fixed;" vertex="1" parent="1">
          <mxGeometry x="160" y="280" width="80" height="80" as="geometry" />
        </mxCell>
        <mxCell id="SZGSnJeuWU-l9K6wn3Cd-4" value="" style="ellipse;whiteSpace=wrap;html=1;aspect=fixed;" vertex="1" parent="1">
          <mxGeometry x="320" y="280" width="80" height="80" as="geometry" />
        </mxCell>
        <mxCell id="SZGSnJeuWU-l9K6wn3Cd-5" value="B" style="rounded=0;whiteSpace=wrap;html=1;fontSize=44;fillColor=#97D077;" vertex="1" parent="1">
          <mxGeometry x="400" y="400" width="80" height="80" as="geometry" />
        </mxCell>
        <mxCell id="SZGSnJeuWU-l9K6wn3Cd-6" value="G" style="rounded=0;whiteSpace=wrap;html=1;fontSize=44;" vertex="1" parent="1">
          <mxGeometry x="80" y="400" width="80" height="80" as="geometry" />
        </mxCell>
        <mxCell id="SZGSnJeuWU-l9K6wn3Cd-7" value="C" style="rounded=0;whiteSpace=wrap;html=1;fontSize=44;fillColor=#97D077;" vertex="1" parent="1">
          <mxGeometry x="480" y="640" width="80" height="80" as="geometry" />
        </mxCell>
        <mxCell id="SZGSnJeuWU-l9K6wn3Cd-8" value="" style="ellipse;whiteSpace=wrap;html=1;aspect=fixed;" vertex="1" parent="1">
          <mxGeometry x="80" y="760" width="80" height="80" as="geometry" />
        </mxCell>
        <mxCell id="SZGSnJeuWU-l9K6wn3Cd-9" value="" style="ellipse;whiteSpace=wrap;html=1;aspect=fixed;" vertex="1" parent="1">
          <mxGeometry x="320" y="520" width="80" height="80" as="geometry" />
        </mxCell>
        <mxCell id="SZGSnJeuWU-l9K6wn3Cd-10" value="" style="ellipse;whiteSpace=wrap;html=1;aspect=fixed;" vertex="1" parent="1">
          <mxGeometry x="480" y="520" width="80" height="80" as="geometry" />
        </mxCell>
        <mxCell id="SZGSnJeuWU-l9K6wn3Cd-11" value="D" style="rounded=0;whiteSpace=wrap;html=1;fontSize=44;fillColor=#97D077;" vertex="1" parent="1">
          <mxGeometry x="320" y="640" width="80" height="80" as="geometry" />
        </mxCell>
        <mxCell id="SZGSnJeuWU-l9K6wn3Cd-12" value="" style="ellipse;whiteSpace=wrap;html=1;aspect=fixed;" vertex="1" parent="1">
          <mxGeometry x="480" y="760" width="80" height="80" as="geometry" />
        </mxCell>
        <mxCell id="SZGSnJeuWU-l9K6wn3Cd-13" value="" style="ellipse;whiteSpace=wrap;html=1;aspect=fixed;" vertex="1" parent="1">
          <mxGeometry x="320" y="760" width="80" height="80" as="geometry" />
        </mxCell>
        <mxCell id="SZGSnJeuWU-l9K6wn3Cd-14" value="E" style="rounded=0;whiteSpace=wrap;html=1;fontSize=44;" vertex="1" parent="1">
          <mxGeometry x="400" y="880" width="80" height="80" as="geometry" />
        </mxCell>
        <mxCell id="SZGSnJeuWU-l9K6wn3Cd-15" value="" style="ellipse;whiteSpace=wrap;html=1;aspect=fixed;" vertex="1" parent="1">
          <mxGeometry x="400" y="1000" width="80" height="80" as="geometry" />
        </mxCell>
        <mxCell id="SZGSnJeuWU-l9K6wn3Cd-16" value="H" style="rounded=0;whiteSpace=wrap;html=1;fontSize=44;" vertex="1" parent="1">
          <mxGeometry x="240" y="1120" width="80" height="80" as="geometry" />
        </mxCell>
        <mxCell id="SZGSnJeuWU-l9K6wn3Cd-17" value="" style="ellipse;whiteSpace=wrap;html=1;aspect=fixed;" vertex="1" parent="1">
          <mxGeometry x="240" y="1241" width="80" height="80" as="geometry" />
        </mxCell>
        <mxCell id="SZGSnJeuWU-l9K6wn3Cd-18" value="" style="endArrow=classic;html=1;rounded=0;curved=1;exitX=0.5;exitY=1;exitDx=0;exitDy=0;entryX=0.5;entryY=0;entryDx=0;entryDy=0;" edge="1" parent="1" source="SZGSnJeuWU-l9K6wn3Cd-1" target="SZGSnJeuWU-l9K6wn3Cd-2">
          <mxGeometry width="50" height="50" relative="1" as="geometry">
            <mxPoint x="340" y="370" as="sourcePoint" />
            <mxPoint x="380" y="370" as="targetPoint" />
          </mxGeometry>
        </mxCell>
        <mxCell id="SZGSnJeuWU-l9K6wn3Cd-19" value="" style="endArrow=classic;html=1;rounded=0;curved=1;exitX=0.5;exitY=1;exitDx=0;exitDy=0;entryX=0;entryY=0;entryDx=0;entryDy=0;" edge="1" parent="1" source="SZGSnJeuWU-l9K6wn3Cd-2" target="SZGSnJeuWU-l9K6wn3Cd-4">
          <mxGeometry width="50" height="50" relative="1" as="geometry">
            <mxPoint x="340" y="370" as="sourcePoint" />
            <mxPoint x="380" y="370" as="targetPoint" />
          </mxGeometry>
        </mxCell>
        <mxCell id="SZGSnJeuWU-l9K6wn3Cd-20" value="" style="endArrow=classic;html=1;rounded=0;curved=1;exitX=0.5;exitY=1;exitDx=0;exitDy=0;entryX=1;entryY=0;entryDx=0;entryDy=0;" edge="1" parent="1" source="SZGSnJeuWU-l9K6wn3Cd-2" target="SZGSnJeuWU-l9K6wn3Cd-3">
          <mxGeometry width="50" height="50" relative="1" as="geometry">
            <mxPoint x="290" y="250" as="sourcePoint" />
            <mxPoint x="342" y="302" as="targetPoint" />
          </mxGeometry>
        </mxCell>
        <mxCell id="SZGSnJeuWU-l9K6wn3Cd-21" value="" style="endArrow=classic;html=1;rounded=0;curved=1;exitX=0.5;exitY=1;exitDx=0;exitDy=0;entryX=1;entryY=0;entryDx=0;entryDy=0;" edge="1" parent="1">
          <mxGeometry width="50" height="50" relative="1" as="geometry">
            <mxPoint x="172" y="348" as="sourcePoint" />
            <mxPoint x="120" y="400" as="targetPoint" />
          </mxGeometry>
        </mxCell>
        <mxCell id="SZGSnJeuWU-l9K6wn3Cd-22" value="" style="endArrow=classic;html=1;rounded=0;curved=1;exitX=0.5;exitY=1;exitDx=0;exitDy=0;entryX=0;entryY=0;entryDx=0;entryDy=0;" edge="1" parent="1">
          <mxGeometry width="50" height="50" relative="1" as="geometry">
            <mxPoint x="390" y="348" as="sourcePoint" />
            <mxPoint x="442" y="400" as="targetPoint" />
          </mxGeometry>
        </mxCell>
        <mxCell id="SZGSnJeuWU-l9K6wn3Cd-23" value="" style="endArrow=classic;html=1;rounded=0;curved=1;exitX=0.5;exitY=1;exitDx=0;exitDy=0;entryX=0;entryY=0;entryDx=0;entryDy=0;" edge="1" parent="1">
          <mxGeometry width="50" height="50" relative="1" as="geometry">
            <mxPoint x="440" y="480" as="sourcePoint" />
            <mxPoint x="492" y="532" as="targetPoint" />
          </mxGeometry>
        </mxCell>
        <mxCell id="SZGSnJeuWU-l9K6wn3Cd-25" value="" style="endArrow=classic;html=1;rounded=0;curved=1;exitX=0.5;exitY=1;exitDx=0;exitDy=0;entryX=1;entryY=0;entryDx=0;entryDy=0;" edge="1" parent="1">
          <mxGeometry width="50" height="50" relative="1" as="geometry">
            <mxPoint x="442" y="480" as="sourcePoint" />
            <mxPoint x="390" y="532" as="targetPoint" />
          </mxGeometry>
        </mxCell>
        <mxCell id="SZGSnJeuWU-l9K6wn3Cd-26" value="" style="endArrow=classic;html=1;rounded=0;curved=1;entryX=0.5;entryY=0;entryDx=0;entryDy=0;exitX=0;exitY=1;exitDx=0;exitDy=0;" edge="1" parent="1" source="SZGSnJeuWU-l9K6wn3Cd-12" target="SZGSnJeuWU-l9K6wn3Cd-14">
          <mxGeometry width="50" height="50" relative="1" as="geometry">
            <mxPoint x="460" y="820" as="sourcePoint" />
            <mxPoint x="450" y="827" as="targetPoint" />
          </mxGeometry>
        </mxCell>
        <mxCell id="SZGSnJeuWU-l9K6wn3Cd-28" value="" style="endArrow=classic;html=1;rounded=0;curved=1;entryX=0.5;entryY=0;entryDx=0;entryDy=0;exitX=1;exitY=1;exitDx=0;exitDy=0;strokeColor=#000000;" edge="1" parent="1" source="SZGSnJeuWU-l9K6wn3Cd-13" target="SZGSnJeuWU-l9K6wn3Cd-14">
          <mxGeometry width="50" height="50" relative="1" as="geometry">
            <mxPoint x="380" y="850" as="sourcePoint" />
            <mxPoint x="450" y="827" as="targetPoint" />
          </mxGeometry>
        </mxCell>
        <mxCell id="SZGSnJeuWU-l9K6wn3Cd-29" value="" style="endArrow=classic;html=1;rounded=0;curved=1;exitX=0.5;exitY=1;exitDx=0;exitDy=0;entryX=0.5;entryY=0;entryDx=0;entryDy=0;" edge="1" parent="1" source="SZGSnJeuWU-l9K6wn3Cd-9" target="SZGSnJeuWU-l9K6wn3Cd-11">
          <mxGeometry width="50" height="50" relative="1" as="geometry">
            <mxPoint x="340" y="650" as="sourcePoint" />
            <mxPoint x="380" y="650" as="targetPoint" />
          </mxGeometry>
        </mxCell>
        <mxCell id="SZGSnJeuWU-l9K6wn3Cd-30" value="" style="endArrow=classic;html=1;rounded=0;curved=1;exitX=0.5;exitY=1;exitDx=0;exitDy=0;entryX=0.5;entryY=0;entryDx=0;entryDy=0;" edge="1" parent="1">
          <mxGeometry width="50" height="50" relative="1" as="geometry">
            <mxPoint x="519.52" y="600" as="sourcePoint" />
            <mxPoint x="519.52" y="640" as="targetPoint" />
          </mxGeometry>
        </mxCell>
        <mxCell id="SZGSnJeuWU-l9K6wn3Cd-31" value="" style="endArrow=classic;html=1;rounded=0;curved=1;exitX=0.5;exitY=1;exitDx=0;exitDy=0;entryX=0.5;entryY=0;entryDx=0;entryDy=0;" edge="1" parent="1">
          <mxGeometry width="50" height="50" relative="1" as="geometry">
            <mxPoint x="359.52" y="720" as="sourcePoint" />
            <mxPoint x="359.52" y="760" as="targetPoint" />
          </mxGeometry>
        </mxCell>
        <mxCell id="SZGSnJeuWU-l9K6wn3Cd-32" value="" style="endArrow=classic;html=1;rounded=0;curved=1;exitX=0.5;exitY=1;exitDx=0;exitDy=0;entryX=0.5;entryY=0;entryDx=0;entryDy=0;" edge="1" parent="1">
          <mxGeometry width="50" height="50" relative="1" as="geometry">
            <mxPoint x="519.52" y="720" as="sourcePoint" />
            <mxPoint x="519.52" y="760" as="targetPoint" />
          </mxGeometry>
        </mxCell>
        <mxCell id="SZGSnJeuWU-l9K6wn3Cd-34" value="" style="endArrow=classic;html=1;rounded=0;curved=1;entryX=0.5;entryY=0;entryDx=0;entryDy=0;exitX=0.5;exitY=1;exitDx=0;exitDy=0;" edge="1" parent="1" source="SZGSnJeuWU-l9K6wn3Cd-6" target="SZGSnJeuWU-l9K6wn3Cd-8">
          <mxGeometry width="50" height="50" relative="1" as="geometry">
            <mxPoint x="150" y="510" as="sourcePoint" />
            <mxPoint x="160" y="500" as="targetPoint" />
          </mxGeometry>
        </mxCell>
        <mxCell id="SZGSnJeuWU-l9K6wn3Cd-36" value="" style="endArrow=classic;html=1;rounded=0;curved=1;entryX=0.5;entryY=0;entryDx=0;entryDy=0;exitX=0.5;exitY=1;exitDx=0;exitDy=0;" edge="1" parent="1" source="SZGSnJeuWU-l9K6wn3Cd-8" target="SZGSnJeuWU-l9K6wn3Cd-16">
          <mxGeometry width="50" height="50" relative="1" as="geometry">
            <mxPoint x="120" y="620" as="sourcePoint" />
            <mxPoint x="270" y="930" as="targetPoint" />
          </mxGeometry>
        </mxCell>
        <mxCell id="SZGSnJeuWU-l9K6wn3Cd-37" value="" style="endArrow=classic;html=1;rounded=0;curved=1;exitX=0.5;exitY=1;exitDx=0;exitDy=0;entryX=0.5;entryY=0;entryDx=0;entryDy=0;" edge="1" parent="1" source="SZGSnJeuWU-l9K6wn3Cd-15" target="SZGSnJeuWU-l9K6wn3Cd-16">
          <mxGeometry width="50" height="50" relative="1" as="geometry">
            <mxPoint x="340" y="850" as="sourcePoint" />
            <mxPoint x="310" y="1070" as="targetPoint" />
          </mxGeometry>
        </mxCell>
        <mxCell id="SZGSnJeuWU-l9K6wn3Cd-38" value="" style="endArrow=classic;html=1;rounded=0;curved=1;exitX=0.5;exitY=1;exitDx=0;exitDy=0;entryX=0.5;entryY=0;entryDx=0;entryDy=0;" edge="1" parent="1">
          <mxGeometry width="50" height="50" relative="1" as="geometry">
            <mxPoint x="439.52" y="960" as="sourcePoint" />
            <mxPoint x="439.52" y="1000" as="targetPoint" />
          </mxGeometry>
        </mxCell>
        <mxCell id="SZGSnJeuWU-l9K6wn3Cd-39" value="" style="endArrow=classic;html=1;rounded=0;curved=1;exitX=0.5;exitY=1;exitDx=0;exitDy=0;entryX=0.5;entryY=0;entryDx=0;entryDy=0;" edge="1" parent="1">
          <mxGeometry width="50" height="50" relative="1" as="geometry">
            <mxPoint x="279.65999999999997" y="1200" as="sourcePoint" />
            <mxPoint x="279.65999999999997" y="1240" as="targetPoint" />
          </mxGeometry>
        </mxCell>
        <mxCell id="SZGSnJeuWU-l9K6wn3Cd-40" value="" style="ellipse;whiteSpace=wrap;html=1;aspect=fixed;fillColor=#000000;" vertex="1" parent="1">
          <mxGeometry x="515" y="795" width="10" height="10" as="geometry" />
        </mxCell>
        <mxCell id="SZGSnJeuWU-l9K6wn3Cd-42" value="s&lt;sub&gt;1&lt;/sub&gt;" style="text;html=1;strokeColor=none;fillColor=none;align=center;verticalAlign=middle;whiteSpace=wrap;rounded=0;fontSize=20;" vertex="1" parent="1">
          <mxGeometry x="170" y="350" width="60" height="40" as="geometry" />
        </mxCell>
        <mxCell id="SZGSnJeuWU-l9K6wn3Cd-43" value="s&lt;sub&gt;2&lt;/sub&gt;" style="text;html=1;strokeColor=none;fillColor=none;align=center;verticalAlign=middle;whiteSpace=wrap;rounded=0;fontSize=20;" vertex="1" parent="1">
          <mxGeometry x="330" y="350" width="60" height="40" as="geometry" />
        </mxCell>
        <mxCell id="SZGSnJeuWU-l9K6wn3Cd-44" value="i" style="text;html=1;strokeColor=none;fillColor=none;align=center;verticalAlign=middle;whiteSpace=wrap;rounded=0;fontSize=20;" vertex="1" parent="1">
          <mxGeometry x="225" y="110" width="60" height="40" as="geometry" />
        </mxCell>
        <mxCell id="SZGSnJeuWU-l9K6wn3Cd-45" value="o" style="text;html=1;strokeColor=none;fillColor=none;align=center;verticalAlign=middle;whiteSpace=wrap;rounded=0;fontSize=20;" vertex="1" parent="1">
          <mxGeometry x="250" y="1320" width="60" height="40" as="geometry" />
        </mxCell>
        <mxCell id="SZGSnJeuWU-l9K6wn3Cd-46" value="s&lt;sub&gt;3&lt;/sub&gt;" style="text;html=1;strokeColor=none;fillColor=none;align=center;verticalAlign=middle;whiteSpace=wrap;rounded=0;fontSize=20;" vertex="1" parent="1">
          <mxGeometry x="300" y="580" width="60" height="40" as="geometry" />
        </mxCell>
        <mxCell id="SZGSnJeuWU-l9K6wn3Cd-47" value="s&lt;sub&gt;4&lt;/sub&gt;" style="text;html=1;strokeColor=none;fillColor=none;align=center;verticalAlign=middle;whiteSpace=wrap;rounded=0;fontSize=20;" vertex="1" parent="1">
          <mxGeometry x="460" y="580" width="60" height="40" as="geometry" />
        </mxCell>
        <mxCell id="SZGSnJeuWU-l9K6wn3Cd-48" value="s&lt;sub&gt;5&lt;/sub&gt;" style="text;html=1;strokeColor=none;fillColor=none;align=center;verticalAlign=middle;whiteSpace=wrap;rounded=0;fontSize=20;" vertex="1" parent="1">
          <mxGeometry x="70" y="827" width="60" height="40" as="geometry" />
        </mxCell>
        <mxCell id="SZGSnJeuWU-l9K6wn3Cd-49" value="s&lt;sub&gt;6&lt;/sub&gt;" style="text;html=1;strokeColor=none;fillColor=none;align=center;verticalAlign=middle;whiteSpace=wrap;rounded=0;fontSize=20;" vertex="1" parent="1">
          <mxGeometry x="320" y="830" width="60" height="40" as="geometry" />
        </mxCell>
        <mxCell id="SZGSnJeuWU-l9K6wn3Cd-50" value="s&lt;sub&gt;7&lt;/sub&gt;" style="text;html=1;strokeColor=none;fillColor=none;align=center;verticalAlign=middle;whiteSpace=wrap;rounded=0;fontSize=20;" vertex="1" parent="1">
          <mxGeometry x="480" y="830" width="60" height="40" as="geometry" />
        </mxCell>
        <mxCell id="SZGSnJeuWU-l9K6wn3Cd-51" value="s&lt;sub&gt;8&lt;/sub&gt;" style="text;html=1;strokeColor=none;fillColor=none;align=center;verticalAlign=middle;whiteSpace=wrap;rounded=0;fontSize=20;" vertex="1" parent="1">
          <mxGeometry x="430" y="1070" width="60" height="40" as="geometry" />
        </mxCell>
        <mxCell id="SZGSnJeuWU-l9K6wn3Cd-53" value="" style="ellipse;whiteSpace=wrap;html=1;aspect=fixed;fillColor=#000000;" vertex="1" parent="1">
          <mxGeometry x="195" y="315" width="10" height="10" as="geometry" />
        </mxCell>
        <mxCell id="SZGSnJeuWU-l9K6wn3Cd-54" value="" style="ellipse;whiteSpace=wrap;html=1;aspect=fixed;fillColor=#000000;" vertex="1" parent="1">
          <mxGeometry x="355" y="795" width="10" height="10" as="geometry" />
        </mxCell>
      </root>
    </mxGraphModel>
  </diagram>
</mxfile>
